<svg xmlns="http://www.w3.org/2000/svg" xmlns:xlink="http://www.w3.org/1999/xlink" width="1024" height="1025" preserveAspectRatio="xMidYMid meet" viewBox="0 0 1024 1025" style="-ms-transform: rotate(360deg); -webkit-transform: rotate(360deg); transform: rotate(360deg);"><path d="M638 753q-5 29-25.5 50.5T563 830l-119 178q-7 12-20 15.5t-24-3t-14.5-20T388 975l106-157q-31-19-41-53q-93-10-178-51t-144.5-98t-95-127T0 352q0-95 68.5-176T255 47.5T512 0t257 47.5T955.5 176t68.5 176q0 82-49.5 164.5T835.5 663T638 753zM512 64q-122 0-225 38.5t-163 105T64 352q0 55 30.5 113t82 106.5t125 84T455 701q11-27 35-44t54-17q26 0 48.5 13.5T627 690q141-35 237-135t96-203q0-78-60-144.5t-163-105T512 64z" fill="#626262"/><rect x="0" y="0" width="1024" height="1025" fill="rgba(0, 0, 0, 0)" /></svg>
